<?xml version="1.0" encoding="utf-8"?>
<!-- Generator: Adobe Illustrator 23.0.3, SVG Export Plug-In . SVG Version: 6.00 Build 0)  -->
<svg version="1.1" id="Layer_1" xmlns="http://www.w3.org/2000/svg" xmlns:xlink="http://www.w3.org/1999/xlink" x="0px" y="0px"
	 viewBox="0 0 28.3 28.3" style="enable-background:new 0 0 28.3 28.3;" xml:space="preserve">
<g fill="#1badc3">
	<path fill="#1badc3" class="st3" d="M11.1,13c-0.3-1-1.4-1.5-2.4-1.2c-0.7,0.2-1.1,0.6-1.3,1.3c-0.1,0-0.1,0.1-0.1,0.2c0,0.1,0,0.2,0,0.3
		c0,0.5,0.1,0.9,0.4,1.3C7.7,14.9,7.8,15,8,15.1c0.4,0.3,0.8,0.5,1.3,0.4c0.4,0,0.8-0.2,1.1-0.4c0.1,0,0.1-0.1,0.2-0.1
		c0.4-0.4,0.6-0.8,0.6-1.3C11.3,13.5,11.3,13.3,11.1,13C11.1,13,11.1,13,11.1,13z M9.3,14.6c-0.6,0-1-0.5-1-1c0-0.6,0.5-1,1-1
		c0.6,0,1,0.4,1,1C10.3,14.2,9.8,14.6,9.3,14.6z"/>
	<path fill="#1badc3" class="st3" d="M16,15.4c-1.5,0-2.7,1.2-2.7,2.6c0,1.5,1.2,2.6,2.7,2.6c1.4,0,2.6-1.2,2.6-2.6C18.7,16.6,17.5,15.4,16,15.4z
		 M16,19.8c-0.9,0-1.7-0.8-1.7-1.7c0-0.9,0.8-1.7,1.7-1.7c0.9,0,1.7,0.8,1.7,1.7C17.7,19,17,19.8,16,19.8z"/>
	<path fill="#1badc3" class="st3" d="M15.2,10.4c1,0,1.8-0.8,1.9-1.8c0-1-0.8-1.8-1.8-1.8c-1,0-1.8,0.8-1.8,1.8C13.3,9.6,14.2,10.4,15.2,10.4z
		 M15.2,7.7c0.5,0,0.9,0.4,0.9,0.9c0,0.5-0.4,0.9-0.9,0.9c-0.5,0-0.9-0.4-0.9-0.9C14.3,8.1,14.7,7.7,15.2,7.7z"/>
	<path fill="#1badc3" class="st3" d="M27.1,12.6c0-0.3-0.2-0.5-0.5-0.5c-0.3,0-0.5,0.2-0.5,0.5c0,0.2,0,0.4,0,0.6c0,0.1,0,0.1-0.1,0.1
		c-0.6,0-1.1,0-1.7,0c-0.1,0-0.1,0-0.1-0.1c0-0.1,0-0.3,0-0.4c-0.1-1.3-0.5-2.5-1.1-3.7c0-0.1,0-0.1,0-0.2c0.5-0.3,1-0.6,1.5-0.9
		c0.1,0,0.1,0,0.1,0c0.1,0.2,0.2,0.3,0.3,0.5c0.2,0.2,0.4,0.3,0.7,0.2C26,8.7,26,8.4,25.9,8.2c-0.4-0.7-0.8-1.3-1.2-2
		c-0.1-0.3-0.4-0.3-0.7-0.2c-0.2,0.1-0.3,0.4-0.2,0.7C24,6.8,24.1,7,24.2,7.1c0.1,0.1,0.1,0.1,0,0.2c-0.5,0.3-1,0.6-1.5,0.8
		c-0.1,0.1-0.1,0-0.2-0.1C22.3,7.7,22,7.3,21.7,7c-0.6-0.7-1.4-1.4-2.2-1.9c-0.1-0.1-0.1-0.1,0-0.2c0.3-0.5,0.6-1,0.8-1.4
		c0.1-0.1,0.1-0.1,0.2,0c0.2,0.1,0.3,0.2,0.5,0.3c0.2,0.1,0.5,0,0.6-0.2c0.1-0.2,0.1-0.5-0.2-0.6c-0.7-0.4-1.4-0.8-2.1-1.2
		c-0.2-0.1-0.5-0.1-0.6,0.2c-0.1,0.2-0.1,0.5,0.2,0.6c0.2,0.1,0.4,0.2,0.5,0.3c0.1,0,0.1,0.1,0,0.1c-0.3,0.5-0.6,1-0.9,1.5
		c0,0.1-0.1,0.1-0.2,0c-0.3-0.2-0.6-0.3-0.9-0.4c-1-0.4-2.1-0.6-3.2-0.7c-0.1,0-0.1,0-0.1-0.1c0-0.6,0-1.1,0-1.7
		c0-0.1,0-0.1,0.1-0.1c0.2,0,0.4,0,0.6,0c0.3,0,0.5-0.2,0.5-0.5c0-0.3-0.2-0.5-0.5-0.5c-0.8,0-1.6,0-2.4,0c-0.3,0-0.5,0.2-0.5,0.5
		c0,0.3,0.2,0.5,0.5,0.5c0.2,0,0.4,0,0.6,0c0.1,0,0.1,0,0.1,0.1c0,0.5,0,1.1,0,1.6c0,0.1,0,0.2-0.2,0.2c-0.5,0-1,0.1-1.5,0.2
		C10.8,3.8,10,4.1,9.1,4.5C9,4.5,9,4.5,8.9,4.4C8.7,3.9,8.4,3.5,8.1,3c0-0.1-0.1-0.1,0-0.2c0.2-0.1,0.3-0.2,0.5-0.3
		C8.9,2.4,9,2.1,8.8,1.9C8.7,1.6,8.4,1.6,8.2,1.7c-0.7,0.4-1.3,0.8-2,1.2C5.9,3,5.8,3.3,6,3.5c0.1,0.2,0.4,0.3,0.7,0.2
		C6.8,3.6,7,3.5,7.1,3.4c0.1,0,0.1,0,0.1,0c0.3,0.5,0.6,1,0.9,1.5c0,0.1,0,0.1,0,0.2c-1.2,0.8-2.2,1.8-3,3c0,0.1-0.1,0.1-0.1,0
		c-0.5-0.3-1-0.6-1.5-0.9c-0.1,0-0.1-0.1,0-0.1C3.5,7,3.6,6.8,3.7,6.6c0.1-0.2,0.1-0.5-0.2-0.6C3.3,5.8,3,5.9,2.9,6.1
		C2.5,6.8,2.1,7.5,1.7,8.2C1.6,8.4,1.7,8.7,1.9,8.8C2.1,9,2.4,8.9,2.5,8.7c0.1-0.2,0.2-0.3,0.3-0.5c0-0.1,0.1-0.1,0.2,0
		c0.5,0.3,1,0.6,1.5,0.8C4.6,9,4.5,9,4.5,9.1c-0.3,0.5-0.5,1-0.6,1.5c-0.3,0.8-0.4,1.7-0.5,2.5c0,0.1,0,0.2-0.1,0.2
		c-0.6,0-1.1,0-1.7,0c-0.1,0-0.1,0-0.1-0.1c0-0.2,0-0.4,0-0.6c0-0.3-0.3-0.5-0.6-0.5c-0.2,0-0.3,0.2-0.4,0.3c0,0.9,0,1.8,0,2.7
		c0,0.1,0.1,0.2,0.2,0.3c0.2,0.1,0.4,0.1,0.5,0c0.2-0.1,0.3-0.2,0.3-0.4c0-0.2,0-0.4,0-0.6c0-0.1,0-0.1,0.2-0.1c0.5,0,1,0,1.6,0
		c0.1,0,0.2,0.1,0.2,0.2c0,0.1,0,0.3,0,0.4c0.1,1.2,0.5,2.4,1,3.5c0.1,0.2,0.1,0.2-0.1,0.3c-0.4,0.3-0.9,0.5-1.3,0.7
		c-0.1,0.1-0.2,0-0.2-0.1c-0.1-0.1-0.2-0.3-0.3-0.4c-0.1-0.1-0.2-0.2-0.4-0.2c-0.2,0-0.4,0-0.5,0.2c-0.1,0.2-0.1,0.4,0,0.6
		c0.4,0.7,0.8,1.3,1.2,2c0.2,0.3,0.5,0.4,0.7,0.2c0.2-0.1,0.3-0.4,0.2-0.7c-0.1-0.1-0.2-0.3-0.2-0.4c-0.1-0.1-0.1-0.2,0-0.2
		c0.5-0.3,0.9-0.5,1.4-0.8c0.1,0,0.1,0,0.2,0c0.1,0.1,0.1,0.2,0.2,0.3c0.5,0.7,1,1.3,1.6,1.8C7.3,22,7.6,22.3,8,22.5
		c0.1,0.1,0.1,0.1,0.1,0.2c-0.3,0.5-0.5,0.9-0.8,1.4c0,0.1-0.1,0.1-0.2,0C7,24.1,6.8,24,6.7,23.9c-0.1-0.1-0.3-0.1-0.4-0.1
		c-0.2,0.1-0.4,0.2-0.4,0.4c0,0.2,0,0.4,0.2,0.6c0.7,0.4,1.3,0.8,2,1.2c0.3,0.2,0.6,0.1,0.7-0.1c0.1-0.2,0.1-0.5-0.2-0.7
		c-0.1-0.1-0.3-0.2-0.4-0.3c-0.1-0.1-0.1-0.1-0.1-0.3c0.2-0.4,0.5-0.8,0.7-1.2C9,23.1,9,23.1,9.2,23.2c0.7,0.4,1.5,0.6,2.3,0.8
		c0.5,0.1,1,0.2,1.6,0.2c0.1,0,0.2,0,0.2,0.2c0,0.5,0,1,0,1.5c0,0.1-0.1,0.2-0.2,0.2c-0.2,0-0.4,0-0.6,0c-0.2,0-0.4,0.2-0.5,0.4
		c0,0.3,0.1,0.5,0.4,0.5c0.9,0,1.8,0,2.7,0c0,0,0,0,0,0c0.2-0.1,0.3-0.3,0.3-0.6c-0.1-0.2-0.2-0.4-0.5-0.4c-0.2,0-0.4,0-0.5,0
		c-0.1,0-0.1,0-0.1-0.1c0-0.5,0-1.1,0-1.6c0-0.1,0-0.2,0.2-0.2c1.4-0.1,2.8-0.5,4.1-1.1c0.1,0,0.1,0,0.2,0c0.3,0.5,0.6,1,0.9,1.5
		c0,0.1,0,0.1,0,0.2c-0.2,0.1-0.3,0.2-0.5,0.3c-0.3,0.2-0.3,0.4-0.2,0.7c0.1,0.2,0.4,0.3,0.7,0.1c0.7-0.4,1.3-0.8,2-1.2
		c0.3-0.1,0.3-0.4,0.2-0.7c-0.1-0.2-0.4-0.3-0.7-0.2c-0.2,0.1-0.3,0.2-0.5,0.3c-0.1,0-0.1,0.1-0.2,0c-0.3-0.5-0.6-1-0.8-1.5
		c0-0.1-0.1-0.1,0-0.2c1.2-0.8,2.2-1.8,3-3c0-0.1,0.1-0.1,0.2,0c0.5,0.3,1,0.6,1.5,0.9c0.1,0,0.1,0.1,0,0.1
		c-0.1,0.2-0.2,0.4-0.3,0.5c-0.1,0.2,0,0.5,0.2,0.6c0.2,0.1,0.5,0.1,0.6-0.2c0.4-0.7,0.8-1.4,1.2-2.1c0.1-0.2,0.1-0.5-0.2-0.6
		c-0.2-0.1-0.5-0.1-0.6,0.2c-0.1,0.2-0.2,0.3-0.3,0.5c-0.1,0.1-0.1,0.1-0.2,0.1c-0.5-0.3-1-0.6-1.4-0.8c-0.1-0.1-0.1-0.1,0-0.2
		c0.3-0.5,0.5-1,0.6-1.5c0.3-0.8,0.4-1.7,0.5-2.6c0-0.1,0-0.2,0.1-0.2c0.6,0,1.1,0,1.7,0c0.1,0,0.1,0,0.1,0.1c0,0.2,0,0.4,0,0.6
		c0,0.3,0.2,0.5,0.5,0.5c0.3,0,0.5-0.2,0.5-0.5C27.1,14.2,27.1,13.4,27.1,12.6z M13.8,23.4c-5.3,0-9.6-4.3-9.6-9.6s4.3-9.6,9.6-9.6
		s9.6,4.3,9.6,9.6S19.1,23.4,13.8,23.4z"/>
	<path fill="#1badc3" class="st3" d="M19.3,8.1c-0.2,0.2-0.2,0.5,0.1,0.7c0.7,0.7,1.2,1.4,1.5,2.3c0.3,0.6,0.5,1.3,0.5,2c0,0,0,0,0,0.1
		c0,0.3,0.1,0.5,0.4,0.5c0.1,0,0.2,0,0.2,0c0.2-0.1,0.3-0.2,0.3-0.4c0,0,0-0.1,0-0.1c-0.2-1.9-1-3.6-2.3-5
		C19.8,7.9,19.5,7.9,19.3,8.1z"/>
</g>
</svg>
