<svg xmlns="http://www.w3.org/2000/svg" xmlns:xlink="http://www.w3.org/1999/xlink" viewBox="0 0 64 64"><defs><style>.cls-1{fill:url(#linear-gradient);}.cls-2{fill:url(#linear-gradient-2);}.cls-3{fill:url(#linear-gradient-3);}.cls-4{fill:url(#linear-gradient-4);}.cls-5{fill:url(#linear-gradient-5);}.cls-6{fill:url(#linear-gradient-6);}.cls-7{fill:url(#linear-gradient-7);}.cls-8{fill:url(#linear-gradient-8);}.cls-9{fill:url(#linear-gradient-9);}.cls-10{fill:url(#linear-gradient-10);}.cls-11{fill:url(#linear-gradient-11);}.cls-12{fill:url(#linear-gradient-12);}.cls-13{fill:url(#linear-gradient-13);}.cls-14{fill:url(#linear-gradient-14);}</style><linearGradient id="linear-gradient" x1="25.21" y1="24.09" x2="34.45" y2="24.09" gradientUnits="userSpaceOnUse"><stop offset="0" stop-color="#9f2fff"/><stop offset="1" stop-color="#0bb1d3"/></linearGradient><linearGradient id="linear-gradient-2" x1="22.09" y1="26.82" x2="24.48" y2="26.82" xlink:href="#linear-gradient"/><linearGradient id="linear-gradient-3" x1="5.36" y1="29.45" x2="56.05" y2="29.45" xlink:href="#linear-gradient"/><linearGradient id="linear-gradient-4" x1="9.85" y1="33.13" x2="19.96" y2="33.13" xlink:href="#linear-gradient"/><linearGradient id="linear-gradient-5" x1="8.21" y1="38.1" x2="10.36" y2="38.1" xlink:href="#linear-gradient"/><linearGradient id="linear-gradient-6" x1="41.76" y1="18.9" x2="46.97" y2="18.9" xlink:href="#linear-gradient"/><linearGradient id="linear-gradient-7" x1="37.95" y1="19.21" x2="40.92" y2="19.21" xlink:href="#linear-gradient"/><linearGradient id="linear-gradient-8" x1="41.45" y1="10.4" x2="43.45" y2="10.4" xlink:href="#linear-gradient"/><linearGradient id="linear-gradient-9" x1="51.74" y1="14.84" x2="56.53" y2="14.84" xlink:href="#linear-gradient"/><linearGradient id="linear-gradient-10" x1="55.6" y1="26.53" x2="61.55" y2="26.53" xlink:href="#linear-gradient"/><linearGradient id="linear-gradient-11" x1="28.36" y1="14.84" x2="33.16" y2="14.84" xlink:href="#linear-gradient"/><linearGradient id="linear-gradient-12" x1="2.48" y1="47.58" x2="61.42" y2="47.58" xlink:href="#linear-gradient"/><linearGradient id="linear-gradient-13" x1="11.48" y1="51.58" x2="52.43" y2="51.58" xlink:href="#linear-gradient"/><linearGradient id="linear-gradient-14" x1="18.48" y1="55.58" x2="45.43" y2="55.58" xlink:href="#linear-gradient"/></defs><g id="_9.sun" data-name="9.sun"><path class="cls-1" d="M25.75,23.72a1,1,0,0,0,.9,1.79,9.09,9.09,0,0,1,6.56-.61,1,1,0,0,0,1.23-.69C34.79,21.48,27.13,22.69,25.75,23.72Z"/><path class="cls-2" d="M22.77,25.9c-.57.48-1,1.32-.34,1.9,1,.9,2.74-1,1.76-1.92A1,1,0,0,0,22.77,25.9Z"/><path class="cls-3" d="M7.57,44.58a1,1,0,0,0,.88-1.48,8.85,8.85,0,0,1-1.09-4.26c.06-9.65,13.34-12.29,17.1-3.43a1,1,0,1,0,1.85-.77,11,11,0,0,0-6.86-6.21c4.43-9.06,18.09-9.06,22.52,0a10.82,10.82,0,0,0-6.86,6.21,1,1,0,0,0,1.85.77c5.17-11.22,21.54-3.36,16,7.68a1,1,0,1,0,1.75,1,10.9,10.9,0,0,0-1.29-12.3c6.19-13.63-12.38-24.27-21-12.08a14.6,14.6,0,0,0-15,8.34A10.91,10.91,0,0,0,5.36,38.84C5.42,40.36,5.84,44.22,7.57,44.58ZM42.45,16.33a10.24,10.24,0,0,1,9.46,14A10.8,10.8,0,0,0,44,28a14.52,14.52,0,0,0-9.43-7.93A10.21,10.21,0,0,1,42.45,16.33Z"/><path class="cls-4" d="M11.61,35a6,6,0,0,1,7-1.58,1,1,0,0,0,.81-1.82,7.92,7.92,0,0,0-9.29,2.11,1,1,0,0,0,.11,1.4A1,1,0,0,0,11.61,35Z"/><path class="cls-5" d="M9.58,36.38c-1.38-.22-1.34,1.51-1.37,2.46a1,1,0,0,0,1,1c1.24,0,.92-1.44,1.13-2.27A1,1,0,0,0,9.58,36.38Z"/><path class="cls-6" d="M42.67,19.39c1.22,0,2.23.72,3.33,1a1,1,0,0,0,.85-.47c.82-1.86-2.81-2.42-4.06-2.56A1,1,0,0,0,42.67,19.39Z"/><path class="cls-7" d="M39.51,18a7.61,7.61,0,0,0-1.12.62,1,1,0,0,0,.55,1.83c.83-.22,2.37-.83,1.89-1.94A1,1,0,0,0,39.51,18Z"/><path class="cls-8" d="M42.45,13.37a1,1,0,0,0,1-1V8.42a1,1,0,0,0-2,0v3.95A1,1,0,0,0,42.45,13.37Z"/><path class="cls-9" d="M52.74,17.23c.57.22,3.07-2.78,3.5-3.08a1,1,0,0,0,0-1.42,1,1,0,0,0-1.41,0L52,15.52A1,1,0,0,0,52.74,17.23Z"/><path class="cls-10" d="M55.6,26.53a1,1,0,0,0,1,1h3.95a1,1,0,0,0,0-2H56.6A1,1,0,0,0,55.6,26.53Z"/><path class="cls-11" d="M31.44,16.94a1,1,0,0,0,1.42-1.42l-2.79-2.79a1,1,0,0,0-1.42,1.42Z"/><path class="cls-12" d="M60.45,46.58h-57a1,1,0,0,0,0,2h57A1,1,0,0,0,60.45,46.58Z"/><path class="cls-13" d="M51.45,50.58h-39a1,1,0,0,0,0,2h39A1,1,0,0,0,51.45,50.58Z"/><path class="cls-14" d="M44.45,54.58h-25a1,1,0,0,0,0,2h25A1,1,0,0,0,44.45,54.58Z"/></g></svg>